<svg width="50" height="50" viewBox="0 0 50 50" fill="none" xmlns="http://www.w3.org/2000/svg">
<path d="M13.2812 1.5625H36.7188L30.4297 10.9766H19.6484L13.2812 1.5625Z" fill="#C05B52"/>
<path d="M36.7969 1.5625L40.5859 4.14063C43.2422 5.9375 43.9453 9.57031 42.1484 12.2266L32.1094 27.3438L20.5859 25.5859L36.7969 1.5625Z" fill="#F37865"/>
<path d="M13.2813 1.5625L9.49222 4.14063C6.83597 5.9375 6.13284 9.57031 7.92972 12.2266L17.9688 27.3438L29.4922 25.5859L13.2813 1.5625Z" fill="#F37865"/>
<path d="M12.2266 4.14063L14.1407 2.8125L13.2813 1.5625L9.49222 4.14063C6.83597 5.9375 6.13284 9.57031 7.92972 12.2266L17.9688 27.3438L20.4688 26.9531L10.625 12.2656C8.86722 9.57031 9.57034 5.97656 12.2266 4.14063Z" fill="white"/>
<path d="M25 48.4375C31.4721 48.4375 36.7188 43.1908 36.7188 36.7188C36.7188 30.2467 31.4721 25 25 25C18.5279 25 13.2812 30.2467 13.2812 36.7188C13.2812 43.1908 18.5279 48.4375 25 48.4375Z" fill="#D3A798"/>
<path d="M15.625 36.7188C15.625 30.625 20.2344 25.6641 26.1719 25.0391C25.7812 25 25.3906 25 25 25C18.5156 25 13.2812 30.2344 13.2812 36.7188C13.2812 43.2031 18.5156 48.4375 25 48.4375C25.3906 48.4375 25.7812 48.3984 26.1719 48.3984C20.2344 47.7734 15.625 42.8125 15.625 36.7188Z" fill="white"/>
<path d="M40.664 3.67188L37.0703 1.09375C37.0703 1.09375 37.0703 1.09375 37.0312 1.09375C37.0312 1.09375 37.0312 1.09375 36.9921 1.09375C36.9921 1.09375 36.9531 1.09375 36.9531 1.05469C36.914 1.05469 36.914 1.05469 36.875 1.05469H36.8359C36.7968 1.05469 36.7968 1.05469 36.7578 1.05469H36.7187H13.2812C13.2421 1.05469 13.2031 1.05469 13.2031 1.05469H13.164C13.125 1.05469 13.125 1.05469 13.0859 1.09375C13.0468 1.09375 13.0468 1.13281 13.0078 1.13281C13.0078 1.13281 13.0078 1.13281 12.9687 1.13281L9.17965 3.71094C6.24996 5.66406 5.46871 9.64844 7.42184 12.5781L17.1875 27.2266C14.4531 29.4922 12.6953 32.8906 12.6953 36.7188C12.6953 43.5156 18.2031 49.0234 25 49.0234C31.7968 49.0234 37.3046 43.5156 37.3046 36.7188C37.3046 32.8125 35.4687 29.3359 32.6562 27.0703L42.3046 12.4609C44.2187 9.57031 43.5156 5.70312 40.664 3.67188ZM20.664 11.5625H29.3359L25 18.0859L20.664 11.5625ZM30.0781 10.4297C30 10.3906 29.9609 10.3906 29.8828 10.3906H20.039C20 10.3906 19.9609 10.3906 19.9218 10.3906L14.375 2.14844H35.625L30.0781 10.4297ZM8.3984 11.9141C6.79684 9.53125 7.42184 6.25 9.80465 4.64844L13.125 2.38281L24.5312 19.4531L24.5703 19.4922L28.0859 24.7656C27.1093 24.5312 26.0937 24.375 25 24.375C22.4609 24.375 20.0781 25.1563 18.125 26.4844L8.3984 11.9141ZM36.1328 36.7188C36.1328 42.8516 31.1328 47.8516 25 47.8516C18.8672 47.8516 13.8671 42.8516 13.8671 36.7188C13.8671 30.5859 18.8672 25.5859 25 25.5859C31.1328 25.5859 36.1328 30.5859 36.1328 36.7188ZM41.3281 11.7969L31.6796 26.4062C31.1718 26.0547 30.7031 25.8203 30.1171 25.5469L29.9218 25.2734L25.7031 19.1406L36.875 2.38281L40 4.60938C42.3046 6.28906 42.8906 9.45312 41.3281 11.7969Z" fill="#62355C"/>
<path d="M16.6016 36.7188C16.6016 37.0312 16.875 37.3047 17.1875 37.3047C17.5 37.3047 17.7734 37.0312 17.7734 36.7188C17.7734 32.7344 21.0156 29.4922 25 29.4922C25.3125 29.4922 25.5859 29.2188 25.5859 28.9062C25.5859 28.5938 25.3125 28.3203 25 28.3203C20.3516 28.3203 16.6016 32.0703 16.6016 36.7188Z" fill="white"/>
<path d="M24.4141 44.5312C24.4141 44.8438 24.6875 45.1172 25 45.1172C29.6484 45.1172 33.3984 41.3672 33.3984 36.7188C33.3984 36.4062 33.125 36.1328 32.8125 36.1328C32.5 36.1328 32.2266 36.4062 32.2266 36.7188C32.2266 40.7031 28.9844 43.9453 25 43.9453C24.6875 43.9453 24.4141 44.2188 24.4141 44.5312Z" fill="white"/>
</svg>
