<svg version="1.0" xmlns="http://www.w3.org/2000/svg" viewBox="0 0 512 512" preserveAspectRatio="xMidYMid meet">
<g transform="translate(0,512) scale(0.1,-0.1)"
fill="#ffffff" stroke="none">
<path d="M1800 4605 l0 -255 -255 0 -255 0 0 -255 0 -255 255 0 255 0 0 255 0
255 765 0 765 0 0 -255 0 -255 255 0 255 0 0 -1540 0 -1540 -1277 2 -1278 3
-3 1538 -2 1537 -253 -2 -252 -3 -3 -1537 -2 -1538 -255 0 -255 0 0 -255 0
-255 2305 0 2305 0 0 255 0 255 -255 0 -255 0 -2 1537 -3 1538 -252 3 -253 2
-2 253 -3 252 -257 3 -258 2 0 255 0 255 -765 0 -765 0 0 -255z"/>
<path d="M2308 3583 l-3 -258 -252 -3 -253 -2 0 -255 0 -255 255 0 255 0 0
-765 0 -765 255 0 255 0 0 765 0 765 255 0 255 0 0 255 0 255 -252 2 -253 3
-3 258 -2 257 -255 0 -255 0 -2 -257z"/>
</g>
</svg>

